<mxfile host="Electron" agent="Mozilla/5.0 (X11; Linux x86_64) AppleWebKit/537.36 (KHTML, like Gecko) draw.io/24.7.5 Chrome/126.0.6478.183 Electron/31.3.0 Safari/537.36" version="24.7.5">
  <diagram name="Page-1" id="zIQnml00nM7HdzknHczP">
    <mxGraphModel dx="1762" dy="887" grid="1" gridSize="10" guides="1" tooltips="1" connect="1" arrows="1" fold="1" page="1" pageScale="1" pageWidth="1169" pageHeight="827" math="1" shadow="0">
      <root>
        <mxCell id="0" />
        <mxCell id="1" parent="0" />
        <mxCell id="0m3ymN_SVPQKu9WONEuP-2" value="" style="ellipse;whiteSpace=wrap;html=1;aspect=fixed;fillColor=#F8F9FA;dashed=1;strokeWidth=1" parent="1" vertex="1">
          <mxGeometry x="270" y="170" width="380" height="380" as="geometry" />
        </mxCell>
        <mxCell id="0m3ymN_SVPQKu9WONEuP-3" value="" style="ellipse;whiteSpace=wrap;html=1;rotation=-90;fillColor=none;dashed=1" parent="1" vertex="1">
          <mxGeometry x="265.98" y="260.39" width="380.08" height="198" as="geometry" />
        </mxCell>
        <mxCell id="0m3ymN_SVPQKu9WONEuP-4" value="" style="ellipse;whiteSpace=wrap;html=1;rotation=90;direction=south;fillColor=none;dashed=1" parent="1" vertex="1">
          <mxGeometry x="385" y="173.68000000000006" width="150" height="376.32" as="geometry" />
        </mxCell>
        <mxCell id="0m3ymN_SVPQKu9WONEuP-5" value="" style="endArrow=classic;html=1;rounded=0;entryX=0.5;entryY=0;entryDx=0;entryDy=0;fillColor=none;dashed=1" parent="1" target="0m3ymN_SVPQKu9WONEuP-2" edge="1">
          <mxGeometry width="50" height="50" relative="1" as="geometry">
            <mxPoint x="460" y="360" as="sourcePoint" />
            <mxPoint x="490" y="360" as="targetPoint" />
          </mxGeometry>
        </mxCell>
        <mxCell id="0m3ymN_SVPQKu9WONEuP-6" value="" style="endArrow=classic;html=1;rounded=0;entryX=0.5;entryY=1;entryDx=0;entryDy=0;fillColor=none;dashed=1" parent="1" target="0m3ymN_SVPQKu9WONEuP-2" edge="1">
          <mxGeometry width="50" height="50" relative="1" as="geometry">
            <mxPoint x="459.5" y="360" as="sourcePoint" />
            <mxPoint x="459.5" y="170" as="targetPoint" />
          </mxGeometry>
        </mxCell>
        <mxCell id="0m3ymN_SVPQKu9WONEuP-8" value="" style="endArrow=classic;startArrow=classic;html=1;rounded=0;entryX=1;entryY=0.5;entryDx=0;entryDy=0;exitX=0;exitY=0.5;exitDx=0;exitDy=0;fillColor=none;dashed=1" parent="1" source="0m3ymN_SVPQKu9WONEuP-2" target="0m3ymN_SVPQKu9WONEuP-2" edge="1">
          <mxGeometry width="50" height="50" relative="1" as="geometry">
            <mxPoint x="440" y="410" as="sourcePoint" />
            <mxPoint x="490" y="360" as="targetPoint" />
          </mxGeometry>
        </mxCell>
        <mxCell id="0m3ymN_SVPQKu9WONEuP-10" value="" style="endArrow=classic;html=1;rounded=0;strokeWidth=2;strokeColor=#CC0000;fillColor=#CC0000;entryX=0;entryY=0;entryDx=0;entryDy=0;" parent="1" target="9yC3GEBJV22Q5W1vsadK-1" edge="1">
          <mxGeometry width="50" height="50" relative="1" as="geometry">
            <mxPoint x="460" y="360" as="sourcePoint" />
            <mxPoint x="579.8099999999943" y="468.19500000000005" as="targetPoint" />
          </mxGeometry>
        </mxCell>
        <mxCell id="0m3ymN_SVPQKu9WONEuP-11" value="&lt;span style=&quot;font-size: 18px;&quot;&gt;$$\ket{0}$$&lt;/span&gt;" style="text;html=1;align=center;verticalAlign=middle;whiteSpace=wrap;rounded=0;" parent="1" vertex="1">
          <mxGeometry x="430" y="130" width="60" height="30" as="geometry" />
        </mxCell>
        <mxCell id="0m3ymN_SVPQKu9WONEuP-12" value="&lt;span style=&quot;font-size: 18px;&quot;&gt;$$\ket{1}$$&lt;/span&gt;" style="text;html=1;align=center;verticalAlign=middle;whiteSpace=wrap;rounded=0;" parent="1" vertex="1">
          <mxGeometry x="430" y="560" width="60" height="30" as="geometry" />
        </mxCell>
        <mxCell id="0m3ymN_SVPQKu9WONEuP-13" value="&lt;span style=&quot;font-size: 18px;&quot;&gt;$$\ket{+}$$&lt;/span&gt;" style="text;html=1;align=center;verticalAlign=middle;whiteSpace=wrap;rounded=0;" parent="1" vertex="1">
          <mxGeometry x="310" y="428.39" width="60" height="30" as="geometry" />
        </mxCell>
        <mxCell id="0m3ymN_SVPQKu9WONEuP-14" value="&lt;span style=&quot;font-size: 18px;&quot;&gt;$$\ket{-}$$&lt;/span&gt;" style="text;html=1;align=center;verticalAlign=middle;whiteSpace=wrap;rounded=0;" parent="1" vertex="1">
          <mxGeometry x="540" y="270" width="60" height="30" as="geometry" />
        </mxCell>
        <mxCell id="0m3ymN_SVPQKu9WONEuP-15" value="&lt;span style=&quot;font-size: 18px;&quot;&gt;$$\ket{+i}$$&lt;/span&gt;" style="text;html=1;align=center;verticalAlign=middle;whiteSpace=wrap;rounded=0;" parent="1" vertex="1">
          <mxGeometry x="646.06" y="344.39" width="60" height="30" as="geometry" />
        </mxCell>
        <mxCell id="0m3ymN_SVPQKu9WONEuP-16" value="&lt;span style=&quot;font-size: 18px;&quot;&gt;$$\ket{-i}$$&lt;/span&gt;" style="text;html=1;align=center;verticalAlign=middle;whiteSpace=wrap;rounded=0;" parent="1" vertex="1">
          <mxGeometry x="230" y="345" width="30" height="30" as="geometry" />
        </mxCell>
        <mxCell id="0m3ymN_SVPQKu9WONEuP-17" value="&lt;font style=&quot;font-size: 18px;&quot;&gt;$$\ket{\psi_1}$$&lt;/font&gt;" style="text;html=1;align=center;verticalAlign=middle;whiteSpace=wrap;rounded=0;" parent="1" vertex="1">
          <mxGeometry x="535" y="480" width="50" height="30" as="geometry" />
        </mxCell>
        <mxCell id="0m3ymN_SVPQKu9WONEuP-31" value="" style="endArrow=classic;startArrow=classic;html=1;rounded=0;exitX=0.76;exitY=0.066;exitDx=0;exitDy=0;exitPerimeter=0;entryX=0.263;entryY=0.932;entryDx=0;entryDy=0;entryPerimeter=0;fillColor=none;dashed=1" parent="1" edge="1">
          <mxGeometry width="50" height="50" relative="1" as="geometry">
            <mxPoint x="362" y="427" as="sourcePoint" />
            <mxPoint x="549" y="297" as="targetPoint" />
          </mxGeometry>
        </mxCell>
        <mxCell id="0m3ymN_SVPQKu9WONEuP-18" value="" style="endArrow=classic;html=1;rounded=0;strokeWidth=2;strokeColor=#0000CC;fillColor=#CC0000;entryX=0;entryY=1;entryDx=0;entryDy=0;" parent="1" target="0m3ymN_SVPQKu9WONEuP-22" edge="1">
          <mxGeometry width="50" height="50" relative="1" as="geometry">
            <mxPoint x="462" y="360" as="sourcePoint" />
            <mxPoint x="500" y="330" as="targetPoint" />
          </mxGeometry>
        </mxCell>
        <mxCell id="0m3ymN_SVPQKu9WONEuP-20" value="&lt;font style=&quot;font-size: 18px;&quot;&gt;$$\ket{\psi_2}$$&lt;/font&gt;" style="text;html=1;align=center;verticalAlign=middle;whiteSpace=wrap;rounded=0;" parent="1" vertex="1">
          <mxGeometry x="529.81" y="200" width="50" height="30" as="geometry" />
        </mxCell>
        <mxCell id="0m3ymN_SVPQKu9WONEuP-22" value="" style="ellipse;whiteSpace=wrap;html=1;aspect=fixed;fillColor=#0000CC;" parent="1" vertex="1">
          <mxGeometry x="560.2" y="230" width="19.61" height="19.61" as="geometry" />
        </mxCell>
        <mxCell id="9yC3GEBJV22Q5W1vsadK-1" value="" style="ellipse;whiteSpace=wrap;html=1;aspect=fixed;fillColor=#FF3333;" vertex="1" parent="1">
          <mxGeometry x="575" y="470" width="19.61" height="19.61" as="geometry" />
        </mxCell>
      </root>
    </mxGraphModel>
  </diagram>
</mxfile>
